<?xml version="1.0" encoding="UTF-8"?>
<svg fill="none" viewBox="0 0 87 47" xmlns="http://www.w3.org/2000/svg">
<g clip-path="url(#a)">
<path d="m6.5001 5.7456c-0.13562 0.29566-0.30809 0.56767-0.51572 0.81772-0.20763 0.24836-0.4454 0.46124-0.71331 0.63864-0.26791 0.17739-0.56093 0.31593-0.87907 0.4173s-0.64968 0.15206-0.99294 0.15206c-0.47219 0-0.91424-0.08954-1.3245-0.27032-0.41191-0.18078-0.77024-0.42576-1.0783-0.73663s-0.55089-0.67242-0.73005-1.088c-0.17749-0.41562-0.26623-0.86165-0.26623-1.3381s0.088745-0.92247 0.26791-1.3364c0.17916-0.41562 0.42196-0.77717 0.73005-1.088 0.30809-0.31087 0.66642-0.55585 1.0783-0.73663 0.41191-0.18078 0.85229-0.27032 1.3245-0.27032 0.34325 0 0.67479 0.048996 0.99293 0.1453 0.31814 0.09799 0.61117 0.23653 0.87908 0.41731 0.26791 0.18077 0.50568 0.39534 0.7133 0.6437 0.20763 0.24836 0.37843 0.52206 0.51573 0.81772l-1.3194 0.50854c-0.1641-0.33114-0.40354-0.60146-0.71833-0.80589-0.31479-0.20612-0.6681-0.30918-1.0616-0.30918-0.27126 0-0.52912 0.05237-0.77191 0.15712s-0.45377 0.24836-0.63294 0.43252c-0.17916 0.18415-0.31981 0.39703-0.42363 0.63863-0.10381 0.2416-0.15572 0.50347-0.15572 0.78393s0.05191 0.53388 0.15572 0.77886c0.10382 0.24498 0.24447 0.45786 0.42363 0.63864 0.17917 0.18077 0.39015 0.32269 0.63294 0.42744s0.50065 0.15713 0.77191 0.15713c0.38679 0 0.73842-0.10306 1.0566-0.30918 0.31814-0.20612 0.55925-0.47138 0.72335-0.79576l1.3194 0.50854-0.00168 0.00338z" fill="#105C83"/>
<path d="m8.2381 1.7736c-0.15069 0.15206-0.33321 0.22809-0.54753 0.22809-0.21433 0-0.3868-0.07603-0.53582-0.22809-0.1507-0.15205-0.22605-0.33621-0.22605-0.55247 0-0.21625 0.07535-0.39027 0.22605-0.54064 0.1507-0.15206 0.32819-0.22808 0.53582-0.22808s0.39684 0.076028 0.54753 0.22808c0.1507 0.15206 0.22605 0.33283 0.22605 0.54064s-0.07535 0.40042-0.22605 0.55247zm-1.2541 5.866h1.4166v-4.979h-1.4166v4.979z" fill="#105C83"/>
<path d="m11.79 3.9378c-0.5073 0-0.8807 0.09968-1.1202 0.29736-0.2394 0.19936-0.36 0.45278-0.36 0.76365v2.6407h-1.4165v-4.979h1.4165v0.32439c0.2077-0.14361 0.4354-0.25849 0.6865-0.34128 0.2495-0.08279 0.5158-0.12502 0.7937-0.12502v1.4192z" fill="#105C83"/>
<path d="m16.992 6.1781c-0.1004 0.23146-0.231 0.44434-0.3918 0.63863-0.1607 0.1943-0.3449 0.36325-0.5525 0.50348-0.2077 0.14023-0.432 0.25004-0.6765 0.32945-0.2428 0.07941-0.5007 0.11827-0.7719 0.11827-0.3584 0-0.6932-0.06927-1.008-0.20612s-0.5894-0.32439-0.8255-0.56261-0.422-0.5153-0.5576-0.83293c-0.1356-0.31762-0.2043-0.65722-0.2043-1.0171 0-0.35987 0.0687-0.70115 0.2043-1.0222 0.1356-0.32101 0.3215-0.60147 0.5576-0.83969s0.5107-0.42575 0.8255-0.5626 0.6513-0.20612 1.008-0.20612c0.2712 0 0.5291 0.04054 0.7719 0.11826 0.2428 0.07941 0.4688 0.18923 0.6765 0.32946 0.2076 0.14022 0.3918 0.30918 0.5525 0.50347 0.1608 0.19429 0.2914 0.40717 0.3918 0.63863l-1.2022 0.43252c-0.1072-0.21626-0.2662-0.39366-0.4772-0.53051s-0.4488-0.20612-0.7133-0.20612c-0.1792 0-0.35 0.03379-0.5158 0.10306-0.164 0.06927-0.3064 0.16388-0.4236 0.28722-0.1172 0.12333-0.2126 0.26525-0.2846 0.42744-0.072 0.1622-0.1072 0.3379-0.1072 0.52544s0.0352 0.35311 0.1072 0.52037c0.072 0.16557 0.1657 0.30918 0.2846 0.42744 0.1172 0.11827 0.2596 0.21457 0.4236 0.28722 0.1641 0.07265 0.3366 0.10813 0.5158 0.10813 0.2712 0 0.5157-0.07265 0.73-0.21626s0.3751-0.33114 0.4823-0.5626l1.1804 0.46461v0.00169z" fill="#105C83"/>
<path d="m17.421 5.2911v-2.6306h1.4166v2.5866c0 0.37507 0.0804 0.68088 0.2411 0.91403 0.1608 0.23484 0.4086 0.35142 0.7451 0.35142 0.3366 0 0.5777-0.11827 0.7234-0.35649s0.2193-0.54064 0.2193-0.90896v-2.5866h1.4166v4.979h-1.4166v-0.28215c-0.1423 0.13009-0.3047 0.23146-0.4822 0.30242-0.1792 0.07265-0.3835 0.10813-0.6112 0.10813-0.3583 0-0.6764-0.06082-0.9544-0.18416-0.2796-0.12333-0.5157-0.29397-0.7083-0.51361-0.1925-0.21963-0.3399-0.48151-0.4404-0.78393-0.1004-0.30242-0.1507-0.63525-0.1507-0.99512h0.0017z" fill="#105C83"/>
<path d="m23.923 1.7736c-0.1507 0.15206-0.3332 0.22809-0.5476 0.22809-0.2143 0-0.3867-0.07603-0.5358-0.22809-0.1507-0.15205-0.226-0.33621-0.226-0.55247 0-0.21625 0.0753-0.39027 0.226-0.54064 0.1507-0.15206 0.3282-0.22808 0.5358-0.22808 0.2077 0 0.3969 0.076028 0.5476 0.22808 0.1507 0.15206 0.226 0.33283 0.226 0.54064s-0.0753 0.40042-0.226 0.55247zm-1.2558 5.866h1.4165v-4.979h-1.4165v4.979z" fill="#105C83"/>
<path d="m26.871 3.9378v1.8297c0 0.16557 0.0569 0.30749 0.1725 0.42238 0.1138 0.11488 0.2545 0.17402 0.4186 0.17402h0.2997v1.2773h-0.5258c-0.2427 0-0.4738-0.04731-0.6915-0.14023-0.2177-0.09293-0.4069-0.22302-0.5693-0.39028-0.1607-0.16557-0.288-0.35818-0.3801-0.5795-0.0938-0.21964-0.139-0.45279-0.139-0.69777v-1.8939h-0.8791v-1.2773h0.8791v-1.2671h1.4166v1.2671h0.8908v1.2773h-0.8908l-0.0017-0.00169z" fill="#105C83"/>
<path d="m30.573 2.5203c0.3583 0 0.6949 0.06927 1.013 0.20612 0.3182 0.13685 0.5961 0.32439 0.8322 0.56261s0.422 0.51867 0.5576 0.83968 0.2043 0.66229 0.2043 1.0222c0 0.35987-0.0687 0.69946-0.2043 1.0171-0.1356 0.31762-0.3215 0.5947-0.5576 0.83292s-0.514 0.42576-0.8322 0.56261c-0.3181 0.13685-0.6564 0.20612-1.013 0.20612-0.3567 0-0.6932-0.06927-1.008-0.20612s-0.5894-0.32439-0.8255-0.56261-0.422-0.5153-0.5576-0.83292c-0.1356-0.31763-0.2043-0.65722-0.2043-1.0171 0-0.35986 0.0687-0.70114 0.2043-1.0222s0.3215-0.60146 0.5576-0.83968 0.5107-0.42576 0.8255-0.56261 0.6513-0.20612 1.008-0.20612zm0 3.972c0.1859 0 0.36-0.03548 0.5207-0.10813 0.1608-0.07265 0.3014-0.16726 0.4237-0.28721 0.1222-0.11827 0.216-0.26188 0.2846-0.42745 0.0687-0.16557 0.1022-0.33959 0.1022-0.52037 0-0.18077-0.0335-0.36324-0.1022-0.52543-0.0686-0.1622-0.1624-0.30411-0.2846-0.42745-0.1223-0.12333-0.2629-0.21795-0.4237-0.28721-0.1607-0.06927-0.3348-0.10306-0.5207-0.10306s-0.35 0.03379-0.5157 0.10306c-0.1641 0.06926-0.3065 0.16388-0.4237 0.28721-0.1172 0.12334-0.2126 0.26525-0.2846 0.42745-0.072 0.16219-0.1072 0.3379-0.1072 0.52543 0 0.18754 0.0352 0.35311 0.1072 0.52037 0.072 0.16557 0.1658 0.30918 0.2846 0.42745 0.1172 0.11826 0.2596 0.21456 0.4237 0.28721s0.3365 0.10813 0.5157 0.10813z" fill="#105C83"/>
<path d="m41.891 0.76663v6.8729h-1.4165v-0.33621c-0.2076 0.1436-0.4387 0.25849-0.6916 0.34128-0.2545 0.08278-0.5174 0.12502-0.7886 0.12502-0.3583 0-0.6932-0.06927-1.008-0.20612s-0.5894-0.32439-0.8255-0.56261-0.422-0.5153-0.5576-0.83292c-0.1356-0.31763-0.2043-0.65722-0.2043-1.0171 0-0.35986 0.0687-0.70114 0.2043-1.0222 0.1356-0.321 0.3215-0.60146 0.5576-0.83968s0.5107-0.42576 0.8255-0.56261 0.6513-0.20612 1.008-0.20612c0.2712 0 0.5341 0.04224 0.7886 0.12502 0.2546 0.08279 0.484 0.19599 0.6916 0.34128v-2.22h1.4165zm-2.7477 5.7257c0.1859 0 0.36-0.03548 0.5208-0.10813 0.1607-0.07264 0.2997-0.16726 0.4186-0.28721 0.1172-0.11827 0.2126-0.26188 0.2846-0.42745s0.1072-0.33959 0.1072-0.52037c0-0.18077-0.0352-0.36324-0.1072-0.52543-0.072-0.1622-0.1657-0.30411-0.2846-0.42745-0.1172-0.12333-0.2579-0.21794-0.4186-0.28721-0.1608-0.06927-0.3349-0.10306-0.5208-0.10306-0.1858 0-0.36 0.03379-0.5207 0.10306-0.1608 0.06927-0.3014 0.16388-0.4237 0.28721-0.1222 0.12334-0.216 0.26525-0.2846 0.42745-0.0687 0.16219-0.1022 0.3379-0.1022 0.52543 0 0.18754 0.0335 0.35311 0.1022 0.52037 0.0686 0.16557 0.1624 0.30918 0.2846 0.42745 0.1223 0.11826 0.2629 0.21457 0.4237 0.28721 0.1607 0.07265 0.3349 0.10813 0.5207 0.10813z" fill="#105C83"/>
<path d="m47.812 2.6606v4.979h-1.4166v-0.33621c-0.2076 0.1436-0.4387 0.25849-0.6915 0.34128-0.2546 0.08278-0.5174 0.12502-0.7887 0.12502-0.3583 0-0.6932-0.06927-1.008-0.20612s-0.5894-0.32439-0.8255-0.56261-0.422-0.5153-0.5576-0.83292c-0.1356-0.31763-0.2043-0.65722-0.2043-1.0171 0-0.35986 0.0687-0.70114 0.2043-1.0222s0.3215-0.60146 0.5576-0.83968 0.5107-0.42576 0.8255-0.56261 0.6513-0.20612 1.008-0.20612c0.2713 0 0.5341 0.04224 0.7887 0.12502 0.2545 0.08279 0.4839 0.19599 0.6915 0.34128v-0.32438h1.4166v-0.00169zm-2.7461 3.8318c0.1859 0 0.36-0.03548 0.5207-0.10813 0.1608-0.07265 0.2998-0.16726 0.4187-0.28721 0.1172-0.11827 0.2126-0.26188 0.2846-0.42745s0.1072-0.33959 0.1072-0.52037c0-0.18077-0.0352-0.36324-0.1072-0.52543-0.072-0.1622-0.1658-0.30411-0.2846-0.42745-0.1173-0.12333-0.2579-0.21795-0.4187-0.28721-0.1607-0.06927-0.3348-0.10306-0.5207-0.10306s-0.36 0.03379-0.5207 0.10306c-0.1608 0.06926-0.3014 0.16388-0.4237 0.28721-0.1222 0.12334-0.216 0.26525-0.2846 0.42745-0.0687 0.16219-0.1022 0.3379-0.1022 0.52543 0 0.18754 0.0335 0.35311 0.1022 0.52037 0.0686 0.16557 0.1624 0.30918 0.2846 0.42745 0.1223 0.11826 0.2629 0.21456 0.4237 0.28721 0.1607 0.07265 0.3348 0.10813 0.5207 0.10813z" fill="#105C83"/>
<path d="m48.24 4.0138c0-0.25173 0.062-0.47306 0.1876-0.66059 0.1256-0.18754 0.2863-0.34297 0.4822-0.46462 0.1959-0.12333 0.422-0.21457 0.6765-0.27539s0.509-0.09123 0.7669-0.09123c0.2578 0 0.504 0.02703 0.7401 0.08109 0.2361 0.05407 0.4504 0.13685 0.6429 0.24836 0.1926 0.11151 0.36 0.25343 0.499 0.42238s0.2411 0.36662 0.3064 0.58964l-1.1905 0.41055c-0.0636-0.13685-0.1724-0.25174-0.3215-0.34635-0.1507-0.09292-0.3466-0.14699-0.5894-0.16219-0.2076-0.00676-0.375 0.00675-0.504 0.04392-0.1289 0.03548-0.2009 0.10475-0.2143 0.20612-0.0151 0.10813 0.0452 0.19261 0.1775 0.25512 0.1323 0.06082 0.3014 0.12333 0.509 0.18415 0.2076 0.06083 0.4354 0.13179 0.6865 0.21119 0.2495 0.07941 0.4823 0.18585 0.6966 0.31932s0.3935 0.30242 0.5358 0.50854 0.2143 0.47137 0.2143 0.79576c0 0.24498-0.0619 0.45955-0.1875 0.6437-0.1256 0.18416-0.2863 0.33959-0.4822 0.46462-0.1976 0.12671-0.422 0.21963-0.6765 0.28214-0.2545 0.06083-0.509 0.09124-0.7669 0.09124-0.2578 0-0.499-0.0321-0.7451-0.09799s-0.4705-0.15713-0.6698-0.27539c-0.2009-0.11827-0.3684-0.2585-0.504-0.41731-0.1356-0.15882-0.226-0.32777-0.2679-0.50854l1.1905-0.49841c0.0637 0.15882 0.1742 0.29398 0.3265 0.40548 0.1541 0.11151 0.3349 0.17909 0.5426 0.20105 0.1574 0.01521 0.3164 0.00338 0.4772-0.0321 0.1607-0.03548 0.2562-0.10475 0.2846-0.20612 0.0352-0.12333-0.01-0.21625-0.139-0.28214-0.1289-0.0642-0.2963-0.12841-0.504-0.18923-0.2076-0.06082-0.4387-0.13009-0.6915-0.20612-0.2545-0.07603-0.4923-0.18078-0.7133-0.31425s-0.4052-0.3058-0.5526-0.52036c-0.1473-0.21288-0.2193-0.48489-0.2193-0.81773l-0.0034 0.00169z" fill="#105C83"/>
<path d="m2.7812 13.19v2.274h3.3924v2.8063h-3.3924v2.2741h5.9827v2.8063h-8.764v-12.967h8.764v2.8063h-5.9827z" fill="#105C83"/>
<path d="m19.551 19.524c0 0.7096-0.1256 1.3178-0.3784 1.8281-0.2529 0.5102-0.5978 0.9326-1.0332 1.2654-0.4353 0.3329-0.9477 0.5812-1.5371 0.7434-0.5894 0.1639-1.229 0.245-1.9172 0.245-0.576 0-1.1303-0.0744-1.6644-0.223-0.5341-0.1487-1.0214-0.3582-1.4634-0.6268-0.4421-0.2687-0.8255-0.588-1.1487-0.9563s-0.55424-0.7653-0.69489-1.1911l3.2451-1.0205c0.0284 0.3396 0.2026 0.6167 0.5274 0.8296 0.3232 0.2129 0.6882 0.3328 1.0951 0.3615 0.211 0.0136 0.4169 0.0102 0.6212-0.0101 0.2026-0.022 0.3901-0.0676 0.5576-0.1385 0.1691-0.071 0.3014-0.1656 0.4002-0.2873 0.0988-0.1199 0.1473-0.2652 0.1473-0.4358 0-0.3261-0.1658-0.5981-0.4956-0.8178-0.3299-0.2196-0.7451-0.4291-1.2424-0.6268-0.499-0.1976-1.0365-0.4071-1.6125-0.6268-0.576-0.2196-1.1135-0.4883-1.6125-0.8076s-0.9126-0.7045-1.2424-1.159c-0.32989-0.4528-0.49565-1.0137-0.49565-1.6793 0-0.6235 0.12558-1.1827 0.37842-1.6794 0.25283-0.4967 0.59613-0.9242 1.0331-1.2857 0.4353-0.3616 0.9477-0.637 1.5371-0.8296s1.229-0.2872 1.9172-0.2872c0.576 0 1.1303 0.0743 1.6644 0.223 0.5342 0.1487 1.0214 0.3548 1.4635 0.6167 0.442 0.2619 0.8255 0.5778 1.1486 0.9461 0.3232 0.3683 0.5543 0.7721 0.6949 1.2114l-3.245 0.9985c-0.0285-0.3261-0.2043-0.5947-0.5275-0.8076-0.3231-0.2129-0.6882-0.3328-1.095-0.3615-0.211-0.0288-0.4187-0.0254-0.6213 0.0101-0.2042 0.0355-0.3868 0.0963-0.5475 0.1808-0.1624 0.0844-0.2947 0.1909-0.4002 0.3193s-0.1574 0.2771-0.1574 0.446c0 0.3261 0.1641 0.6032 0.4956 0.8296 0.3299 0.2264 0.7435 0.4426 1.2425 0.6487 0.499 0.2062 1.0348 0.414 1.6124 0.6268 0.5761 0.2129 1.1135 0.4714 1.6125 0.7755s0.9126 0.6775 1.2425 1.1168c0.3298 0.4393 0.4956 0.985 0.4956 1.6371v-0.0017z" fill="#105C83"/>
<path d="m30.527 10.383v2.8063h-3.7926v10.161h-2.7813v-10.161h-3.7708v-2.8063h10.345z" fill="#105C83"/>
<path d="m40.618 23.35h-2.7813l-0.7585-2.2741h-4.6984l-0.7585 2.2741h-2.7813l4.2983-12.967h3.1814l4.2983 12.967zm-4.4674-5.0804-1.4333-4.2727-1.4116 4.2727h2.8449z" fill="#105C83"/>
<path d="m52.542 19.63c-0.2662 0.5812-0.6044 1.1167-1.0113 1.605s-0.8741 0.9073-1.4015 1.2536c-0.5274 0.3481-1.1035 0.6201-1.728 0.8177-0.6246 0.1994-1.2743 0.2974-1.949 0.2974-0.9277 0-1.795-0.1774-2.6021-0.5322s-1.5137-0.8363-2.1165-1.4462c-0.6045-0.6099-1.0817-1.3212-1.4333-2.1355-0.3516-0.8144-0.5275-1.6896-0.5275-2.6255 0-0.936 0.1759-1.8095 0.5275-2.6255 0.3516-0.8144 0.8288-1.5274 1.4333-2.1373s1.3094-1.0914 2.1165-1.4462 1.6744-0.5322 2.6021-0.5322c0.6747 0 1.3227 0.0963 1.949 0.2872 0.6245 0.191 1.2006 0.4647 1.728 0.8178 0.5274 0.3548 0.9929 0.7754 1.4015 1.2654 0.4069 0.4883 0.7434 1.0238 1.0113 1.605l-2.592 0.9985c-0.3231-0.6521-0.7936-1.1792-1.4115-1.583s-1.3128-0.6066-2.0863-0.6066c-0.5342 0-1.0399 0.1031-1.5171 0.3075-0.4772 0.2061-0.8925 0.4883-1.2424 0.8498-0.3516 0.3616-0.6279 0.7789-0.8322 1.2537-0.2043 0.4747-0.3047 0.9883-0.3047 1.5408s0.1021 1.0492 0.3047 1.5307 0.4806 0.9005 0.8322 1.2536c0.3516 0.3548 0.7652 0.6353 1.2424 0.8397 0.4772 0.2061 0.9829 0.3075 1.5171 0.3075 0.7585 0 1.45-0.2028 2.0746-0.6066 0.6245-0.4038 1.0984-0.9241 1.4216-1.5628l2.592 0.9985 0.0016 0.0102zm-7.2251 2.8705h1.2843v0.7011c0 0.2129 0.0452 0.3649 0.1373 0.4562 0.0904 0.0912 0.2076 0.1588 0.3483 0.2027 0.1406 0.0422 0.288 0.0845 0.442 0.1267 0.1541 0.0423 0.3014 0.1166 0.4421 0.223 0.1406 0.1065 0.2561 0.2619 0.3482 0.468 0.0905 0.2045 0.1373 0.5001 0.1373 0.882 0 0.6099-0.2143 1.0947-0.6429 1.4563-0.4287 0.3616-0.9662 0.5423-1.6125 0.5423-0.5476 0-1.0365-0.1385-1.4635-0.4139-0.4286-0.2771-0.7133-0.6268-0.8539-1.0526l1.3479-0.4037c0.0134 0.1554 0.1055 0.2804 0.2746 0.3716 0.1691 0.0913 0.3717 0.1386 0.6112 0.1386 0.2528 0 0.4772-0.0456 0.6748-0.1386 0.1959-0.0929 0.2947-0.2737 0.2947-0.5423 0-0.2973-0.0921-0.4815-0.2746-0.5525-0.1826-0.0709-0.3868-0.1385-0.6112-0.2027s-0.4287-0.1706-0.6112-0.3193-0.2746-0.4562-0.2746-0.9242v-1.0204l0.0017 0.0017z" fill="#105C83"/>
<path d="m59.853 10.128c0.9277 0 1.7933 0.1774 2.6021 0.5322 0.8071 0.3548 1.5137 0.8363 2.1165 1.4462 0.6044 0.6099 1.0817 1.3212 1.4333 2.1372 0.3516 0.8144 0.5274 1.6895 0.5274 2.6255s-0.1758 1.8112-0.5274 2.6255c-0.3516 0.8144-0.8289 1.5273-1.4333 2.1356-0.6045 0.6099-1.3094 1.0914-2.1165 1.4462s-1.6744 0.5322-2.6021 0.5322c-0.9276 0-1.7949-0.1774-2.602-0.5322s-1.5137-0.8363-2.1165-1.4462c-0.6045-0.61-1.0817-1.3212-1.4333-2.1356-0.3516-0.8143-0.5275-1.6895-0.5275-2.6255s0.1759-1.8094 0.5275-2.6255c0.3516-0.8143 0.8288-1.5273 1.4333-2.1372s1.3094-1.0914 2.1165-1.4462 1.6744-0.5322 2.602-0.5322zm-3.96-1.2756c0.6597-0.7079 1.2223-1.186 1.6862-1.4344 0.4638-0.24836 0.8707-0.36831 1.2223-0.36155 0.3516 0.00675 0.6597 0.09292 0.9276 0.25511 0.2663 0.16388 0.5224 0.29736 0.7686 0.40379 0.2461 0.10644 0.5023 0.13854 0.7686 0.09631 0.2662-0.04224 0.576-0.26864 0.9276-0.68088l1.6007 0.82955c-0.4772 0.56768-0.8991 0.99174-1.2642 1.2756-0.365 0.28384-0.6915 0.46799-0.9795 0.55247s-0.5475 0.0963-0.7803 0.0321c-0.2327-0.0642-0.4504-0.15205-0.653-0.26525-0.2043-0.1132-0.4002-0.22977-0.5894-0.35142-0.1892-0.11995-0.3935-0.19429-0.6112-0.22301-0.2176-0.02873-0.4571 0.01351-0.7166 0.12671-0.2596 0.1132-0.5576 0.33959-0.8958 0.68087l-1.4116-0.93599zm3.96 11.946c0.5342 0 1.0399-0.103 1.5171-0.3075 0.4772-0.2044 0.8924-0.4849 1.2424-0.8397 0.3516-0.3548 0.6279-0.7721 0.8322-1.2536 0.2026-0.4815 0.3047-0.9917 0.3047-1.5307 0-0.5389-0.1021-1.066-0.3047-1.5408-0.2043-0.4747-0.4806-0.8921-0.8322-1.2536-0.3516-0.3616-0.7652-0.6454-1.2424-0.8498-0.4772-0.2045-0.9829-0.3075-1.5171-0.3075-0.5341 0-1.0398 0.103-1.517 0.3075-0.4772 0.2061-0.8925 0.4882-1.2424 0.8498-0.3517 0.3615-0.6279 0.7789-0.8322 1.2536-0.2043 0.4748-0.3048 0.9884-0.3048 1.5408 0 0.5525 0.1022 1.0492 0.3048 1.5307s0.4805 0.9005 0.8322 1.2536c0.3516 0.3548 0.7652 0.6353 1.2424 0.8397 0.4772 0.2061 0.9829 0.3075 1.517 0.3075z" fill="#105C83"/>
<path d="m70.155 13.19v2.274h3.3923v2.8063h-3.3923v2.2741h5.9827v2.8063h-8.764v-12.967h8.764v2.8063h-5.9827z" fill="#105C83"/>
<path d="m86.924 19.524c0 0.7096-0.1256 1.3178-0.3784 1.8281-0.2528 0.5102-0.5978 0.9326-1.0331 1.2654-0.4354 0.3329-0.9478 0.5812-1.5372 0.7434-0.5894 0.1639-1.229 0.245-1.9172 0.245-0.576 0-1.1302-0.0744-1.6644-0.223-0.5341-0.1487-1.0214-0.3582-1.4634-0.6268-0.4421-0.2687-0.8255-0.588-1.1487-0.9563-0.3231-0.3683-0.5542-0.7653-0.6949-1.1911l3.2451-1.0205c0.0285 0.3396 0.2026 0.6167 0.5274 0.8296 0.3232 0.2129 0.6882 0.3328 1.0951 0.3615 0.211 0.0136 0.4169 0.0102 0.6212-0.0101 0.2026-0.022 0.3902-0.0676 0.5576-0.1385 0.1691-0.071 0.3014-0.1656 0.4002-0.2873 0.0988-0.1199 0.1473-0.2652 0.1473-0.4358 0-0.3261-0.1657-0.5981-0.4956-0.8178-0.3298-0.2196-0.7451-0.4291-1.2424-0.6268-0.499-0.1976-1.0365-0.4071-1.6125-0.6268-0.576-0.2196-1.1135-0.4883-1.6125-0.8076-0.4989-0.3193-0.9125-0.7045-1.2424-1.159-0.3298-0.4528-0.4956-1.0137-0.4956-1.6793 0-0.6235 0.1256-1.1827 0.3784-1.6794s0.5961-0.9242 1.0331-1.2857c0.4354-0.3616 0.9478-0.637 1.5372-0.8296s1.229-0.2872 1.9172-0.2872c0.576 0 1.1302 0.0743 1.6644 0.223 0.5341 0.1487 1.0214 0.3548 1.4634 0.6167 0.4421 0.2619 0.8255 0.5778 1.1487 0.9461 0.3231 0.3683 0.5542 0.7721 0.6948 1.2114l-3.245 0.9985c-0.0285-0.3261-0.2043-0.5947-0.5274-0.8076-0.3232-0.2129-0.6882-0.3328-1.0951-0.3615-0.211-0.0288-0.4186-0.0254-0.6212 0.0101-0.2043 0.0355-0.3868 0.0963-0.5476 0.1808-0.1624 0.0844-0.2947 0.1909-0.4002 0.3193-0.1054 0.1284-0.1574 0.2771-0.1574 0.446 0 0.3261 0.1641 0.6032 0.4957 0.8296 0.3298 0.2264 0.7434 0.4426 1.2424 0.6487 0.499 0.2062 1.0348 0.414 1.6125 0.6268 0.576 0.2129 1.1135 0.4714 1.6125 0.7755 0.4989 0.3041 0.9125 0.6775 1.2424 1.1168 0.3298 0.4393 0.4956 0.985 0.4956 1.6371v-0.0017z" fill="#105C83"/>
<path d="m54.492 37.552-2.2085-1.1016-1.3362-1.3482v-1.3803h1.3663l1.3362 1.3499 1.0917 2.2284-0.2495 0.2518z" fill="#105C83"/>
<path d="m57.006 31.335v2.6137l-1.1169 3.2252h-0.4169l-1.1152-3.2252v-2.6137l1.3245-1.3364 1.3245 1.3364z" fill="#105C83"/>
<path d="m60.415 33.722v1.3803l-1.3362 1.3482-2.2103 1.1016-0.2495-0.2518 1.0918-2.2284 1.3362-1.3499h1.368z" fill="#105C83"/>
<path d="m64.105 38.498-1.3244 1.3381h-2.5887l-3.1982-1.1269v-0.4207l3.1982-1.1269h2.5887l1.3244 1.3364z" fill="#105C83"/>
<path d="m60.415 41.896v1.3803h-1.368l-1.3362-1.3482-1.0918-2.2302 0.2495-0.2517 2.2103 1.1016 1.3362 1.3482z" fill="#105C83"/>
<path d="m57.006 43.05v2.6137l-1.3245 1.3364-1.3245-1.3364v-2.6137l1.1152-3.2252h0.4169l1.1169 3.2252z" fill="#105C83"/>
<path d="m54.492 39.446 0.2495 0.2517-1.0917 2.2302-1.3362 1.3482h-1.3663v-1.3803l1.3362-1.3482 2.2085-1.1016z" fill="#105C83"/>
<path d="m54.369 38.289v0.4207l-3.1981 1.1269h-2.5904l-1.3244-1.3381 1.3244-1.3364h2.5904l3.1981 1.1269z" fill="#105C83"/>
<path d="m55.682 39.081c0.319 0 0.5777-0.261 0.5777-0.5829s-0.2587-0.5829-0.5777-0.5829c-0.3191 0-0.5777 0.261-0.5777 0.5829s0.2586 0.5829 0.5777 0.5829z" fill="#105C83"/>
<path d="m82.007 40.865 0.154-0.2011s5e-3 -0.0152 0.0084-0.0236c0.437-0.6167 0.6932-1.3702 0.6932-2.1862 0-2.0781-1.6694-3.7626-3.7289-3.7626-2.0596 0-3.729 1.6845-3.729 3.7626 0 1.8719 1.3563 3.4246 3.1312 3.7135 0.6045 0.1048 1.2391 0.0608 1.8502-0.1571l0.2311-0.0912c0.0234-0.0102 0.0469-0.0203 0.0703-0.0305 0.5291-0.2432 0.9729-0.598 1.3195-1.0221v-0.0017z" fill="#105C83"/>
<path d="m72.576 37.951c0.0301 0.5238 0.0586 1.0492 0.0887 1.5729 0.7384-0.1233 1.4769-0.2466 2.2153-0.3717-0.0536-0.3581-0.062-0.718-0.0285-1.0711-0.7585-0.0439-1.517-0.0862-2.2755-0.1301z" fill="#105C83"/>
<path d="m82.222 34.161 0.2796-0.3227 0.1741-0.2737c0.0888-0.1402 0.1775-0.2821 0.2679-0.4223-0.4688-0.2585-0.9376-0.517-1.4065-0.7738-0.0787 0.2145-0.1574 0.4274-0.2361 0.642l-0.0787 0.2129-0.1088 0.2382-0.1624 0.419-0.2177 0.5592c0.3298 0.1301 0.643 0.3007 0.9343 0.5102l0.5559-0.7873-0.0016-0.0017z" fill="#105C83"/>
<path d="m77.362 34.528c-0.3315-0.7096-0.663-1.4209-0.9946-2.1305-0.4571 0.2821-0.9125 0.566-1.3696 0.8481 0.4855 0.615 0.9711 1.2283 1.4567 1.8433 0.2713-0.2197 0.5743-0.4089 0.9059-0.5609h0.0016z" fill="#105C83"/>
<path d="m85.903 41.164-0.5559-0.2196-0.2311-0.0912-1.934-0.7637c-0.1289 0.3329-0.298 0.6505-0.5056 0.9428l1.3127 0.9444 0.5677 0.4089 0.1456 0.1047 0.0385 0.0287 1.2743 0.9157c0.4035-0.571 0.7334-1.1877 0.9845-1.8365l-1.0967-0.4325v-0.0017z" fill="#105C83"/>
<path d="m85.653 39.176c-0.0603-0.6386-0.1206-1.2773-0.1808-1.9159-0.6799 0.196-1.3597 0.3903-2.0395 0.5863 0.0536 0.3581 0.062 0.718 0.0285 1.0711 0.7317 0.0862 1.4617 0.1723 2.1935 0.2585h-0.0017z" fill="#105C83"/>
<path d="m80.95 42.47c0.3198 0.6522 0.638 1.3043 0.9578 1.9565 0.3968-0.316 0.7937-0.6319 1.1888-0.9478l-1.2424-1.5696c-0.2729 0.2197-0.5743 0.4089-0.9059 0.5609h0.0017z" fill="#105C83"/>
<path d="m76.244 42.619-0.0235 0.0338-0.2411 0.3413-0.144 0.2027c-0.1691 0.2399-0.3399 0.4815-0.5107 0.7214 0.4404 0.2636 0.8808 0.5272 1.3211 0.7907 0.1373-0.2652 0.273-0.5322 0.4103-0.7974-0.0034-0.0017-0.0084-0.0051-0.0117-0.0068l0.1021-0.2264 0.1406-0.3598 0.2931-0.7569c-0.3299-0.1301-0.643-0.3008-0.9344-0.5103l-0.4018 0.5677z" fill="#105C83"/>
<path d="m78.01 30.865 0.0067 0.0422 0.1222 0.8161 0.0368 0.2483 0.3332 2.2133c0.355-0.0541 0.7117-0.0625 1.0616-0.0287l0.1407-1.4716 0.067-0.7045h-0.0067l0.0217-0.2484h0.0101l0.1624-1.6946c-0.6832-0.0675-1.3764-0.0506-2.0696 0.0558l0.1155 0.7704-0.0016 0.0017z" fill="#105C83"/>
<path d="m72.282 35.783 1.7146 0.6774 0.2294 0.0913 0.37 0.147 0.0134 5e-3 0.5225 0.2062c0.1289-0.3329 0.298-0.6488 0.5056-0.9428l-0.4688-0.3379-0.5743-0.4122-0.8239-0.593-1.0883-0.784-0.3818-0.2754c-0.4035 0.5711-0.7334 1.1878-0.9846 1.8365l0.4438 0.1757 0.524 0.2062h-0.0016z" fill="#105C83"/>
<path d="m75.222 40.31-1.2139 0.5575-1.3412 0.5592 0.0134 0.0524-1.1906 0.5474c0.2947 0.6505 0.6598 1.2452 1.0834 1.7807l1.2709-1.0238 0.7652-0.6167 1.1688-0.941c-0.2177-0.2737-0.4053-0.5795-0.556-0.9141v-0.0016z" fill="#105C83"/>
<path d="m80.123 44.932-0.0385-0.2585-0.2796-1.8601c-0.355 0.0541-0.7116 0.0625-1.0616 0.0287l-0.1524 1.5932-0.0368 0.3869-0.0569 0.5947-0.1474 1.5425c0.6815 0.0676 1.3764 0.0507 2.0696-0.0557l-0.2227-1.4868-0.0737-0.4849z" fill="#105C83"/>
<path d="m83.092 36.689 1.1419-0.5254 0.566-0.2602 0.226-0.1047 0.6078-0.2805 1.1889-0.5474c-0.2947-0.6504-0.6597-1.2452-1.0834-1.7807l-1.2307 0.9917-0.2763 0.223-0.1975 0.1588-0.2244 0.1808-0.0385 0.0304-1.2374 0.9968c0.2177 0.2754 0.4052 0.5795 0.5559 0.9141l0.0017 0.0033z" fill="#105C83"/>
<path d="m3.2785 44.604 1.0917-1.9092-4.3703-3.0884 1.2776-0.7434-0.76856-2.8924 7.8012 7.8714c-1.6778 0.2534-3.3539 0.5085-5.0317 0.762z" fill="#105C83"/>
<path d="m8.3991 39.733v3.1391l-7.1247-7.1871c0.84392 0.2078 1.6878 0.4173 2.5334 0.6251 0.14567-0.2551 0.29302-0.5103 0.4387-0.7671l4.1526 4.19z" fill="#105C83"/>
<path d="m8.3988 30.085v8.5912l-2.2538-2.2741c-0.2093-1.0931-0.41861-2.1845-0.62791-3.2759l1.4249 0.3852c0.48558-1.1421 0.97117-2.2843 1.4584-3.4264h-0.00168z" fill="#105C83"/>
<path d="m11.944 33.126c-0.1775 1.0998-0.355 2.1997-0.5324 3.3013l-2.2706 2.2909v-8.6925c0.46047 1.1624 0.91928 2.3248 1.3798 3.4855l1.4249-0.3852h-0.0017z" fill="#105C83"/>
<path d="m16.418 35.564-7.2771 7.3426v-3.1306l4.1174-4.1545c0.1323 0.2297 0.2629 0.4595 0.3952 0.6893 0.9209-0.2501 1.8436-0.4984 2.7645-0.7468z" fill="#105C83"/>
<path d="m13.09 42.695 1.0917 1.9092c-1.6392-0.2551-3.2768-0.5103-4.9161-0.7654l7.6455-7.7143-0.7267 2.7404 1.2775 0.7434-4.3702 3.0884-0.0017-0.0017z" fill="#105C83"/>
<path d="m9.6632 47h-1.7448c0.17246-0.8127 0.3466-1.6236 0.51907-2.4363h0.70326c0.17414 0.8127 0.34828 1.6236 0.52242 2.4363z" fill="#105C83"/>
<path d="m29.313 36.336c0.2294-0.2348 0.4605-0.4697 0.6899-0.7045l-0.4304-0.441 0.1608-1.3938-0.9762-0.1149-0.139 1.2148-1.1788-0.12-0.0971 0.9867 1.5673 0.1588 0.4035 0.4122v0.0017z" fill="#5AC1CF"/>
<path d="m33.837 36.339-1.132 1.1286v-1.5746c-0.3281 0.0118-0.6547 0.0219-0.9828 0.0338v1.4614l-0.9963-1.0171c-0.2294 0.2365-0.4588 0.4714-0.6866 0.7079l0.9059 0.9259h-1.306c0.0016 0.3311 0.0033 0.6606 0.0067 0.9917h1.527l-1.1503 1.1455c0.2261 0.2382 0.4538 0.4764 0.6798 0.7146l1.0198-1.017v1.4783c0.3281 0.0118 0.6547 0.0219 0.9828 0.0338v-1.5493l1.1001 1.1235c0.2361-0.2281 0.4739-0.4562 0.71-0.6842l-1.219-1.2469h1.7163c-0.0151-0.3311-0.0301-0.6606-0.0452-0.9917h-1.4032l0.9729-0.9698c-0.2345-0.2315-0.4672-0.4629-0.7016-0.6944h0.0017z" fill="#5AC1CF"/>
<path d="m32.705 34.457 2.0529-2.0071-0.6832-0.7113-1.3697 1.3398v-3.0631h-0.9828v3.1205l-1.3781-1.3905-0.6949 0.7012 2.073 2.0916v0.3379c0.3281-0.0034 0.6563-0.0068 0.9845-0.0118 0-0.1352-0.0017-0.272-0.0033-0.4072h0.0016z" fill="#5AC1CF"/>
<path d="m35.267 36.304c0.1272-0.125 0.2528-0.2517 0.38-0.3767l1.3815 0.1622 0.1138-0.985-1.2039-0.1402 0.1189-1.1895-0.9779-0.098-0.1574 1.5814-0.3382 0.3379c0.2277 0.2366 0.4554 0.4731 0.6848 0.7079h-0.0016z" fill="#5AC1CF"/>
<path d="m35.575 41.323-0.3332-0.3412c-0.2411 0.2297-0.4806 0.4612-0.7217 0.691 0.1323 0.1301 0.2646 0.2585 0.3968 0.3886l-0.1607 1.387 0.9762 0.1149 0.1406-1.2147 1.1788 0.1199 0.0972-0.9866-1.574-0.1589z" fill="#5AC1CF"/>
<path d="m40.624 38.003h-3.0224l1.3647-1.377-0.6949-0.7011-2.0579 2.0764h-0.1892c5e-3 0.3311 0.0084 0.664 0.0134 0.9951 0.0754 0 0.1507-0.0017 0.2261-0.0034l2.0026 2.0866 0.7049-0.6894-1.3412-1.3972h2.9939v-0.9917 0.0017z" fill="#5AC1CF"/>
<path d="m32.705 42.386h-0.9829v0.2128l-2.0679 2.0207 0.6832 0.7113 1.3847-1.3533v3.0208h0.9829v-3.0496l1.3647 1.377 0.6949-0.7011-2.0579-2.0781v-0.1622l-0.0017 0.0017z" fill="#5AC1CF"/>
<path d="m28.569 38.995c0.0034-0.3311 0.0067-0.6606 0.0101-0.9917h-0.3868l-1.9892-2.0714-0.705 0.6894 1.3279 1.382h-3.0358v0.9917h3.0944l-1.3798 1.3905 0.6949 0.7011 2.073-2.0916h0.298-0.0017z" fill="#5AC1CF"/>
<path d="m29.288 40.872-0.4487 0.4477-1.3748-0.1605-0.1138 0.985 1.2039 0.1402-0.1172 1.1894 0.9762 0.098 0.1574-1.5881 0.4002-0.3988c-0.2278-0.2382-0.4555-0.4747-0.6832-0.7129z" fill="#5AC1CF"/>
<path d="m41.296 25.9h-41.296v1.6591h41.296v-1.6591z" fill="#5AC1CF"/>
<path d="m86.971 26.02h-35.372v1.4209h35.372v-1.4209z" fill="#5AC1CF"/>
</g>
<defs>
<clipPath id="a">
<rect transform="translate(0 .45238)" width="87" height="46.548" fill="#fff"/>
</clipPath>
</defs>
</svg>
