<svg fill="none" viewBox="0 0 161 86" xmlns="http://www.w3.org/2000/svg" class="logoEstacoesFooter svg on">
<g clip-path="url(#a)">
<path d="m12.029 9.9361c-0.251 0.53993-0.5702 1.0366-0.9544 1.4932-0.3842 0.4535-0.8242 0.8423-1.32 1.1662-0.49578 0.324-1.038 0.5769-1.6268 0.762-0.58875 0.1852-1.2023 0.2777-1.8375 0.2777-0.87382 0-1.6919-0.1635-2.451-0.4936-0.76227-0.3301-1.4254-0.7775-1.9955-1.3452-0.57015-0.5676-1.0195-1.2279-1.351-1.9868-0.32846-0.75895-0.49269-1.5734-0.49269-2.4435 0-0.87002 0.16423-1.6845 0.49578-2.4404 0.33156-0.75896 0.78086-1.4192 1.351-1.9869 0.57015-0.56768 1.2333-1.015 1.9955-1.3451 0.76227-0.33012 1.5772-0.49363 2.451-0.49363 0.63523 0 1.2488 0.08947 1.8375 0.26532 0.58875 0.17894 1.131 0.43193 1.6268 0.76205 0.49583 0.33011 0.93583 0.72193 1.32 1.1754s0.7003 0.95332 0.9544 1.4932l-2.4418 0.92864c-0.30367-0.60469-0.74677-1.0983-1.3293-1.4716-0.58255-0.37639-1.2364-0.56459-1.9646-0.56459-0.50198 0-0.97918 0.09564-1.4285 0.28692-0.44931 0.19128-0.83974 0.45352-1.1713 0.78981-0.33156 0.33629-0.59185 0.72502-0.78396 1.1662-0.19212 0.44118-0.28818 0.91939-0.28818 1.4315s0.09606 0.97492 0.28818 1.4223c0.19211 0.44735 0.4524 0.83608 0.78396 1.1662 0.33155 0.3301 0.72198 0.5893 1.1713 0.7806 0.4493 0.1912 0.9265 0.2869 1.4285 0.2869 0.71579 0 1.3665-0.1882 1.9552-0.5646 0.58875-0.3764 1.035-0.86078 1.3386-1.4531l2.4418 0.92864-0.0031 0.00617z" fill="#394D4D"></path>
<path d="m15.245 2.6826c-0.2789 0.27766-0.6166 0.4165-1.0132 0.4165-0.3967 0-0.7158-0.13884-0.9916-0.4165-0.2789-0.27767-0.4183-0.61396-0.4183-1.0089s0.1394-0.71268 0.4183-0.98726c0.2789-0.27767 0.6073-0.4165 0.9916-0.4165 0.3842 0 0.7343 0.13883 1.0132 0.4165s0.4183 0.60778 0.4183 0.98726-0.1394 0.73119-0.4183 1.0089zm-2.3209 10.712h2.6215v-9.092h-2.6215v9.092z" fill="#394D4D"></path>
<path d="m21.818 6.6345c-0.9389 0-1.6299 0.18202-2.073 0.54299-0.4431 0.36405-0.6662 0.82683-0.6662 1.3945v4.8222h-2.6215v-9.0921h2.6215v0.59236c0.3842-0.26224 0.8056-0.47203 1.2704-0.62321 0.4617-0.15117 0.9544-0.2283 1.4688-0.2283v2.5916z" fill="#394D4D"></path>
<path d="m31.445 10.726c-0.186 0.4227-0.4277 0.8114-0.7251 1.1662-0.2975 0.3548-0.6383 0.6633-1.0226 0.9194-0.3842 0.256-0.7994 0.4566-1.2518 0.6016-0.4493 0.145-0.9265 0.2159-1.4285 0.2159-0.6631 0-1.2829-0.1264-1.8654-0.3763-0.5826-0.2499-1.0907-0.5924-1.5276-1.0274-0.437-0.435-0.7809-0.941-1.0319-1.521s-0.378-1.2002-0.378-1.8573c0-0.65715 0.127-1.2804 0.378-1.8665 0.251-0.58619 0.5949-1.0983 1.0319-1.5333 0.4369-0.43501 0.945-0.77747 1.5276-1.0274 0.5825-0.2499 1.2054-0.37639 1.8654-0.37639 0.502 0 0.9792 0.07404 1.4285 0.21596 0.4493 0.14501 0.8676 0.34554 1.2518 0.60161 0.3843 0.25607 0.7251 0.56459 1.0226 0.91939 0.2974 0.3548 0.5391 0.74353 0.7251 1.1662l-2.2249 0.78981c-0.1983-0.39491-0.4927-0.71885-0.8831-0.96875s-0.8304-0.37639-1.32-0.37639c-0.3316 0-0.6476 0.0617-0.9544 0.18819-0.3037 0.1265-0.5671 0.29927-0.784 0.52448-0.2169 0.22522-0.3935 0.48438-0.5267 0.78056-0.1333 0.29618-0.1983 0.61703-0.1983 0.95949s0.065 0.6448 0.1983 0.95024c0.1332 0.30234 0.3067 0.56454 0.5267 0.78054 0.2169 0.216 0.4803 0.3918 0.784 0.5245s0.6228 0.1974 0.9544 0.1974c0.502 0 0.9544-0.1326 1.351-0.3949 0.3966-0.2622 0.6941-0.6047 0.8924-1.0273l2.1846 0.84843v0.0031z" fill="#394D4D"></path>
<path d="m32.238 9.1059v-4.8036h2.6214v4.7234c0 0.68491 0.1488 1.2433 0.4462 1.6691 0.2975 0.4288 0.7561 0.6417 1.3789 0.6417 0.6229 0 1.0691-0.216 1.3386-0.651 0.2696-0.435 0.406-0.98726 0.406-1.6598v-4.7234h2.6214v9.092h-2.6214v-0.5152c-0.2634 0.2375-0.564 0.4226-0.8924 0.5522-0.3316 0.1327-0.7096 0.1975-1.1311 0.1975-0.6631 0-1.2518-0.1111-1.7662-0.3363-0.5175-0.2252-0.9544-0.5368-1.3107-0.9379-0.3564-0.4011-0.629-0.8793-0.815-1.4315-0.1859-0.5523-0.2788-1.1601-0.2788-1.8172h0.0031z" fill="#394D4D"></path>
<path d="m44.271 2.6826c-0.2789 0.27766-0.6166 0.4165-1.0133 0.4165-0.3966 0-0.7157-0.13884-0.9915-0.4165-0.2789-0.27767-0.4183-0.61396-0.4183-1.0089s0.1394-0.71268 0.4183-0.98726c0.2789-0.27767 0.6073-0.4165 0.9915-0.4165 0.3843 0 0.7344 0.13883 1.0133 0.4165s0.4183 0.60778 0.4183 0.98726-0.1394 0.73119-0.4183 1.0089zm-2.324 10.712h2.6215v-9.092h-2.6215v9.092z" fill="#394D4D"></path>
<path d="m49.728 6.6349v3.3412c0 0.30234 0.1053 0.56154 0.3191 0.77134 0.2108 0.2098 0.471 0.3177 0.7747 0.3177h0.5547v2.3324h-0.973c-0.4493 0-0.8769-0.0863-1.2798-0.256-0.4028-0.1697-0.7529-0.4073-1.0535-0.7127-0.2975-0.3024-0.533-0.6541-0.7034-1.0582-0.1735-0.4011-0.2572-0.8269-0.2572-1.2742v-3.4585h-1.6268v-2.3324h1.6268v-2.3139h2.6215v2.3139h1.6485v2.3324h-1.6485l-0.0031-0.00308z" fill="#394D4D"></path>
<path d="m56.578 4.0464c0.6631 0 1.286 0.12649 1.8747 0.37639s1.1031 0.59236 1.54 1.0274 0.7809 0.94715 1.0319 1.5333c0.251 0.58618 0.378 1.2094 0.378 1.8665 0 0.65715-0.127 1.2773-0.378 1.8573s-0.595 1.086-1.0319 1.521-0.9513 0.7775-1.54 1.0274-1.2147 0.3764-1.8747 0.3764-1.2828-0.1265-1.8654-0.3764c-0.5825-0.2499-1.0907-0.5924-1.5276-1.0274s-0.7809-0.941-1.0319-1.521-0.378-1.2001-0.378-1.8573c0-0.65714 0.127-1.2804 0.378-1.8665 0.251-0.58619 0.595-1.0983 1.0319-1.5333s0.9451-0.77747 1.5276-1.0274c0.5826-0.2499 1.2054-0.37639 1.8654-0.37639zm0 7.2533c0.344 0 0.6662-0.0648 0.9637-0.1975s0.5577-0.3054 0.784-0.5245c0.2262-0.2159 0.3997-0.4782 0.5267-0.78052 0.1271-0.30235 0.189-0.62013 0.189-0.95024 0-0.33012-0.0619-0.66332-0.189-0.95949-0.127-0.29618-0.3005-0.55534-0.5267-0.78056-0.2263-0.22522-0.4865-0.39799-0.784-0.52448s-0.6197-0.1882-0.9637-0.1882c-0.3439 0-0.6476 0.06171-0.9544 0.1882-0.3036 0.12649-0.567 0.29926-0.7839 0.52448s-0.3936 0.48438-0.5268 0.78056c-0.1333 0.29617-0.1983 0.61703-0.1983 0.95949 0 0.34245 0.065 0.6448 0.1983 0.95024 0.1332 0.30232 0.3068 0.56462 0.5268 0.78052 0.2169 0.216 0.4803 0.3918 0.7839 0.5245 0.3037 0.1327 0.6229 0.1975 0.9544 0.1975z" fill="#394D4D"></path>
<path d="m77.522 0.84375v12.551h-2.6215v-0.614c-0.3842 0.2623-0.8118 0.4721-1.2797 0.6232-0.471 0.1512-0.9575 0.2284-1.4595 0.2284-0.6631 0-1.2828-0.1265-1.8654-0.3764-0.5825-0.2499-1.0907-0.5924-1.5276-1.0274s-0.7809-0.941-1.0319-1.521-0.378-1.2001-0.378-1.8573c0-0.65714 0.127-1.2804 0.378-1.8665 0.251-0.58618 0.595-1.0983 1.0319-1.5333 0.4369-0.43502 0.9451-0.77747 1.5276-1.0274 0.5826-0.2499 1.2054-0.3764 1.8654-0.3764 0.502 0 0.9885 0.07713 1.4595 0.22831 0.471 0.15117 0.8955 0.35788 1.2797 0.62321v-4.0539h2.6215zm-5.0849 10.456c0.3439 0 0.6662-0.0647 0.9637-0.1974 0.2974-0.1327 0.5546-0.3054 0.7746-0.5245 0.2169-0.2159 0.3936-0.4782 0.5268-0.78054 0.1333-0.30235 0.1983-0.62012 0.1983-0.95023 0-0.33012-0.065-0.66332-0.1983-0.9595-0.1332-0.29618-0.3068-0.55533-0.5268-0.78055-0.2169-0.22522-0.4772-0.39799-0.7746-0.52448-0.2975-0.12649-0.6198-0.1882-0.9637-0.1882-0.344 0-0.6662 0.06171-0.9637 0.1882s-0.5577 0.29926-0.7839 0.52448-0.3998 0.48437-0.5268 0.78055c-0.1271 0.29618-0.189 0.61704-0.189 0.9595 0 0.34245 0.0619 0.6448 0.189 0.95023 0.127 0.30234 0.3006 0.56464 0.5268 0.78054 0.2262 0.216 0.4864 0.3918 0.7839 0.5245s0.6197 0.1974 0.9637 0.1974z" fill="#394D4D"></path>
<path d="m88.479 4.3025v9.092h-2.6214v-0.6139c-0.3843 0.2622-0.8119 0.472-1.2798 0.6232-0.471 0.1511-0.9575 0.2283-1.4595 0.2283-0.6631 0-1.2828-0.1265-1.8653-0.3764-0.5826-0.2499-1.0908-0.5924-1.5277-1.0274s-0.7808-0.941-1.0318-1.521-0.3781-1.2001-0.3781-1.8573c0-0.65714 0.1271-1.2804 0.3781-1.8665 0.251-0.58619 0.5949-1.0983 1.0318-1.5333s0.9451-0.77747 1.5277-1.0274c0.5825-0.2499 1.2053-0.37639 1.8653-0.37639 0.502 0 0.9885 0.07713 1.4595 0.2283s0.8955 0.35788 1.2798 0.62321v-0.59236h2.6214v-0.00308zm-5.0818 6.9972c0.344 0 0.6662-0.0648 0.9637-0.1975s0.5547-0.3054 0.7747-0.5245c0.2169-0.2159 0.3935-0.4782 0.5267-0.78052 0.1333-0.30235 0.1984-0.62013 0.1984-0.95024 0-0.33012-0.0651-0.66332-0.1984-0.95949-0.1332-0.29618-0.3067-0.55534-0.5267-0.78056-0.2169-0.22522-0.4772-0.39799-0.7747-0.52448s-0.6197-0.1882-0.9637-0.1882c-0.3439 0-0.6662 0.06171-0.9637 0.1882-0.2974 0.12649-0.5577 0.29926-0.7839 0.52448s-0.3997 0.48438-0.5268 0.78056c-0.127 0.29617-0.189 0.61703-0.189 0.95949 0 0.34245 0.062 0.6448 0.189 0.95024 0.1271 0.30232 0.3006 0.56462 0.5268 0.78052 0.2262 0.216 0.4865 0.3918 0.7839 0.5245 0.2975 0.1327 0.6198 0.1975 0.9637 0.1975z" fill="#394D4D"></path>
<path d="m89.272 6.7735c0-0.4597 0.1146-0.86386 0.347-1.2063 0.2324-0.34246 0.5299-0.62629 0.8924-0.84843 0.3626-0.22522 0.7809-0.39182 1.2519-0.50288 0.471-0.11107 0.942-0.1666 1.4192-0.1666s0.9327 0.04936 1.3696 0.14809c0.4369 0.09872 0.8335 0.2499 1.1899 0.45352 0.3563 0.20362 0.6662 0.46278 0.9234 0.7713 0.2571 0.30851 0.4462 0.66948 0.567 1.0767l-2.2031 0.7497c-0.1178-0.2499-0.3192-0.4597-0.595-0.63247-0.2789-0.16968-0.6414-0.26841-1.0907-0.29618-0.3842-0.01234-0.6941 0.01235-0.9327 0.08022-0.2386 0.06479-0.3718 0.19128-0.3966 0.37639-0.0279 0.19745 0.0836 0.35171 0.3284 0.46587 0.2448 0.11106 0.5578 0.22521 0.942 0.33628s0.8057 0.24065 1.2705 0.38565c0.4617 0.145 0.8924 0.33937 1.289 0.5831s0.7282 0.55225 0.9916 0.92864 0.3966 0.86074 0.3966 1.4531c0 0.4473-0.1146 0.8392-0.347 1.1754-0.2324 0.3363-0.5299 0.6202-0.8925 0.8485-0.3656 0.2314-0.7808 0.401-1.2518 0.5152-0.471 0.1111-0.942 0.1666-1.4192 0.1666s-0.9234-0.0586-1.3789-0.1789c-0.4555-0.1204-0.8707-0.287-1.2395-0.5029-0.3718-0.216-0.6817-0.4721-0.9327-0.7621s-0.4183-0.5985-0.4957-0.9286l2.2031-0.9101c0.1178 0.29 0.3223 0.5368 0.6042 0.7404 0.2851 0.2036 0.6198 0.327 1.004 0.3671 0.2913 0.0278 0.5857 0.0062 0.8831-0.0586 0.2975-0.0648 0.4741-0.1913 0.5268-0.3764 0.0651-0.2252-0.0186-0.3949-0.2572-0.5152-0.2386-0.1172-0.5485-0.2345-0.9327-0.3455-0.3842-0.1111-0.8118-0.2376-1.2797-0.37643-0.471-0.13884-0.911-0.33012-1.3201-0.57385-0.409-0.24373-0.7498-0.55842-1.0225-0.95024-0.2727-0.38873-0.4059-0.88545-0.4059-1.4932l-0.0062 0.00309z" fill="#394D4D"></path>
<path d="m5.1469 23.529v4.1526h6.2778v5.1245h-6.2778v4.1527h11.072v5.1245h-16.218v-23.679h16.218v5.1245h-11.072z" fill="#394D4D"></path>
<path d="m36.18 35.096c0 1.2958-0.2324 2.4064-0.7003 3.3382-0.4679 0.9317-1.1063 1.703-1.9119 2.3108-0.8057 0.6078-1.7538 1.0613-2.8446 1.3575-1.0907 0.2992-2.2744 0.4473-3.5479 0.4473-1.066 0-2.0916-0.1357-3.0801-0.4072s-1.8902-0.6541-2.7082-1.1446c-0.8181-0.4906-1.5277-1.0737-2.1257-1.7462-0.598-0.6726-1.0257-1.3976-1.2859-2.1751l6.0052-1.8635c0.0526 0.6202 0.3749 1.1261 0.976 1.5149 0.5981 0.3887 1.2736 0.6077 2.0266 0.6602 0.3904 0.0247 0.7715 0.0185 1.1496-0.0185 0.3749-0.0401 0.7219-0.1234 1.0318-0.253 0.313-0.1296 0.5578-0.3023 0.7406-0.5245 0.1828-0.219 0.2727-0.4844 0.2727-0.796 0-0.5954-0.3068-1.0921-0.9172-1.4932-0.6105-0.4011-1.3789-0.7836-2.2992-1.1446-0.9234-0.361-1.9181-0.7435-2.984-1.1446-1.066-0.4011-2.0607-0.8916-2.9841-1.4747s-1.6887-1.2865-2.2992-2.1165c-0.6104-0.8268-0.9172-1.8511-0.9172-3.0666 0-1.1385 0.2324-2.1597 0.7003-3.0667 0.4679-0.9071 1.1032-1.6876 1.9119-2.3478 0.8057-0.6603 1.7539-1.1632 2.8446-1.5149s2.2744-0.5244 3.5479-0.5244c1.066 0 2.0916 0.1357 3.0801 0.4072s1.8902 0.6479 2.7082 1.1261c0.8181 0.4782 1.5277 1.0551 2.1257 1.7277s1.0257 1.4099 1.286 2.2121l-6.0052 1.8233c-0.0527-0.5954-0.3781-1.086-0.9761-1.4747-0.5981-0.3887-1.2736-0.6078-2.0265-0.6602-0.3905-0.0525-0.7747-0.0463-1.1496 0.0185-0.3781 0.0648-0.7158 0.1758-1.0133 0.3301-0.3006 0.1543-0.5454 0.3486-0.7406 0.5831s-0.2913 0.506-0.2913 0.8145c0 0.5954 0.3037 1.1014 0.9172 1.5148 0.6105 0.4134 1.3758 0.8083 2.2992 1.1847s1.915 0.7559 2.9841 1.1446c1.0659 0.3888 2.0606 0.8608 2.984 1.4161 0.9234 0.5554 1.6887 1.2372 2.2992 2.0393 0.6104 0.8022 0.9172 1.7987 0.9172 2.9896v-0.0031z" fill="#394D4D"></path>
<path d="m56.491 18.405v5.1245h-7.0185v18.554h-5.1469v-18.554h-6.9781v-5.1245h19.144z" fill="#394D4D"></path>
<path d="m75.167 42.084h-5.1468l-1.4037-4.1527h-8.6948l-1.4037 4.1527h-5.1469l7.9542-23.679h5.8875l7.9542 23.679zm-8.2672-9.2772-2.6524-7.8024-2.6122 7.8024h5.2646z" fill="#394D4D"></path>
<path d="m97.233 35.29c-0.4927 1.0613-1.1186 2.0393-1.8716 2.931-0.753 0.8916-1.6175 1.6567-2.5936 2.2892-0.976 0.6355-2.042 1.1322-3.1978 1.4932-1.1558 0.3641-2.3581 0.543-3.6068 0.543-1.7167 0-3.3218-0.3239-4.8153-0.9718-1.4936-0.6479-2.8012-1.5272-3.9167-2.641-1.1186-1.1137-2.0018-2.4126-2.6525-3.8996-0.6507-1.4871-0.9761-3.0852-0.9761-4.7944s0.3254-3.3043 0.9761-4.7944c0.6507-1.4871 1.5339-2.789 2.6525-3.9028 1.1186-1.1137 2.4231-1.993 3.9167-2.6409 1.4935-0.6479 3.0986-0.9718 4.8153-0.9718 1.2487 0 2.4479 0.1758 3.6068 0.5245 1.1558 0.3486 2.2218 0.8484 3.1978 1.4932 0.9761 0.6479 1.8375 1.4161 2.5936 2.3108 0.753 0.8916 1.3758 1.8696 1.8716 2.9309l-4.7967 1.8234c-0.5981-1.1909-1.4688-2.1535-2.6122-2.8908-1.1434-0.7374-2.4293-1.1076-3.8609-1.1076-0.9885 0-1.9243 0.1882-2.8074 0.5615-0.8831 0.3764-1.6516 0.8916-2.2992 1.5518-0.6507 0.6603-1.162 1.4223-1.54 2.2892-0.3781 0.867-0.564 1.8049-0.564 2.8137 0 1.0089 0.189 1.9159 0.564 2.7952 0.3749 0.8793 0.8893 1.6444 1.54 2.2892 0.6507 0.6479 1.4161 1.16 2.2992 1.5334 0.8831 0.3763 1.8189 0.5615 2.8074 0.5615 1.4037 0 2.6834-0.3703 3.8392-1.1076 1.1558-0.7374 2.0327-1.6876 2.6308-2.8538l4.7967 1.8233 0.0031 0.0185zm-13.371 5.2418h2.3767v1.2803c0 0.3888 0.0836 0.6664 0.2541 0.833 0.1673 0.1666 0.3842 0.29 0.6445 0.3702 0.2603 0.0772 0.5329 0.1543 0.818 0.2314 0.2851 0.0772 0.5578 0.2129 0.8181 0.4073 0.2602 0.1943 0.4741 0.4782 0.6445 0.8546 0.1673 0.3733 0.2541 0.9132 0.2541 1.6104 0 1.1138-0.3967 1.9992-1.1899 2.6595-0.7933 0.6602-1.7879 0.9903-2.984 0.9903-1.0133 0-1.9181-0.253-2.7082-0.7558-0.7933-0.506-1.3201-1.1447-1.5804-1.9221l2.4945-0.7374c0.0248 0.2839 0.1952 0.5122 0.5081 0.6788 0.313 0.1666 0.6879 0.2529 1.1311 0.2529 0.4679 0 0.8831-0.0833 1.2487-0.2529 0.3626-0.1697 0.5454-0.4998 0.5454-0.9904 0-0.543-0.1705-0.8793-0.5082-1.0088-0.3378-0.1296-0.7158-0.253-1.131-0.3703-0.4152-0.1172-0.7933-0.3116-1.131-0.5831-0.3378-0.2715-0.5082-0.833-0.5082-1.6876v-1.8634l0.0031 0.0031z" fill="#394D4D"></path>
<path d="m110.76 17.939c1.717 0 3.319 0.3239 4.815 0.9718 1.494 0.6479 2.801 1.5272 3.917 2.6409 1.119 1.1138 2.002 2.4126 2.652 3.9028 0.651 1.487 0.976 3.0852 0.976 4.7944 0 1.7091-0.325 3.3073-0.976 4.7943-0.65 1.4871-1.533 2.789-2.652 3.8997-1.119 1.1138-2.423 1.993-3.917 2.6409-1.493 0.6479-3.098 0.9719-4.815 0.9719s-3.322-0.324-4.815-0.9719c-1.494-0.6479-2.802-1.5271-3.917-2.6409-1.119-1.1137-2.002-2.4126-2.6526-3.8997-0.6507-1.487-0.976-3.0852-0.976-4.7943 0-1.7092 0.3253-3.3043 0.976-4.7944 0.6506-1.4871 1.5336-2.789 2.6526-3.9028 1.119-1.1137 2.423-1.993 3.917-2.6409 1.493-0.6479 3.098-0.9718 4.815-0.9718zm-7.328-2.3294c1.22-1.2927 2.262-2.1658 3.12-2.6193s1.611-0.6726 2.262-0.6602c0.651 0.0123 1.221 0.1697 1.717 0.4658 0.492 0.2993 0.966 0.543 1.422 0.7374 0.455 0.1944 0.929 0.253 1.422 0.1759 0.493-0.0772 1.066-0.4906 1.717-1.2434l2.962 1.5149c-0.883 1.0366-1.664 1.811-2.339 2.3293-0.676 0.5183-1.28 0.8546-1.813 1.0088-0.533 0.1543-1.013 0.1759-1.444 0.0587-0.431-0.1173-0.834-0.2777-1.209-0.4844-0.378-0.2067-0.74-0.4196-1.09-0.6417-0.35-0.2191-0.728-0.3548-1.131-0.4073-0.403-0.0524-0.846 0.0247-1.326 0.2314-0.481 0.2067-1.032 0.6201-1.658 1.2433l-2.612-1.7092zm7.328 21.815c0.988 0 1.924-0.1882 2.807-0.5615s1.652-0.8855 2.299-1.5333c0.651-0.6479 1.162-1.41 1.541-2.2893 0.374-0.8792 0.563-1.811 0.563-2.7951 0-0.9842-0.189-1.9468-0.563-2.8137-0.379-0.867-0.89-1.629-1.541-2.2892-0.65-0.6603-1.416-1.1786-2.299-1.5519s-1.819-0.5615-2.807-0.5615c-0.989 0-1.924 0.1882-2.807 0.5615-0.884 0.3764-1.652 0.8916-2.3 1.5519-0.65 0.6602-1.162 1.4222-1.54 2.2892-0.378 0.8669-0.564 1.8048-0.564 2.8137 0 1.0088 0.189 1.9159 0.564 2.7951 0.375 0.8793 0.89 1.6445 1.54 2.2893 0.651 0.6478 1.416 1.16 2.3 1.5333 0.883 0.3764 1.818 0.5615 2.807 0.5615z" fill="#394D4D"></path>
<path d="m129.83 23.529v4.1526h6.277v5.1245h-6.277v4.1527h11.071v5.1245h-16.218v-23.679h16.218v5.1245h-11.071z" fill="#394D4D"></path>
<path d="m160.86 35.096c0 1.2958-0.232 2.4064-0.7 3.3382-0.468 0.9317-1.107 1.703-1.912 2.3108-0.806 0.6078-1.754 1.0613-2.845 1.3575-1.091 0.2992-2.274 0.4473-3.548 0.4473-1.066 0-2.091-0.1357-3.08-0.4072-0.988-0.2715-1.89-0.6541-2.708-1.1446-0.818-0.4906-1.528-1.0737-2.126-1.7462-0.598-0.6726-1.025-1.3976-1.286-2.1751l6.006-1.8635c0.052 0.6202 0.374 1.1261 0.976 1.5149 0.598 0.3887 1.273 0.6077 2.026 0.6602 0.391 0.0247 0.772 0.0185 1.15-0.0185 0.375-0.0401 0.722-0.1234 1.032-0.253 0.313-0.1296 0.557-0.3023 0.74-0.5245 0.183-0.219 0.273-0.4844 0.273-0.796 0-0.5954-0.307-1.0921-0.917-1.4932-0.611-0.4011-1.379-0.7836-2.3-1.1446-0.923-0.361-1.918-0.7435-2.984-1.1446s-2.06-0.8916-2.984-1.4747c-0.923-0.5831-1.688-1.2865-2.299-2.1165-0.61-0.8268-0.917-1.8511-0.917-3.0666 0-1.1385 0.232-2.1597 0.7-3.0667 0.468-0.9071 1.103-1.6876 1.912-2.3478 0.806-0.6603 1.754-1.1632 2.845-1.5149 1.09-0.3517 2.274-0.5244 3.548-0.5244 1.066 0 2.091 0.1357 3.08 0.4072 0.988 0.2715 1.89 0.6479 2.708 1.1261s1.528 1.0551 2.126 1.7277 1.025 1.4099 1.286 2.2121l-6.006 1.8233c-0.052-0.5954-0.378-1.086-0.976-1.4747s-1.273-0.6078-2.026-0.6602c-0.391-0.0525-0.775-0.0463-1.15 0.0185-0.378 0.0648-0.716 0.1758-1.013 0.3301-0.301 0.1543-0.545 0.3486-0.741 0.5831-0.195 0.2345-0.291 0.506-0.291 0.8145 0 0.5954 0.304 1.1014 0.917 1.5148 0.611 0.4134 1.376 0.8083 2.3 1.1847 0.923 0.3764 1.914 0.7559 2.984 1.1446 1.065 0.3888 2.06 0.8608 2.984 1.4161 0.923 0.5554 1.688 1.2372 2.299 2.0393 0.61 0.8022 0.917 1.7987 0.917 2.9896v-0.0031z" fill="#394D4D"></path>
<path d="m100.84 68.018-4.0871-2.0116-2.4727-2.462v-2.5206h2.5285l2.4727 2.4651 2.0206 4.0694-0.462 0.4597z" fill="#D4DE3B"></path>
<path d="m105.49 56.664v4.7728l-2.067 5.8896h-0.771l-2.064-5.8896v-4.7728l2.451-2.4404 2.451 2.4404z" fill="#D4DE3B"></path>
<path d="m111.8 61.023v2.5206l-2.473 2.462-4.09 2.0116-0.462-0.4597 2.021-4.0694 2.472-2.4651h2.532z" fill="#D4DE3B"></path>
<path d="m118.63 69.745-2.451 2.4434h-4.791l-5.918-2.0578v-0.7682l5.918-2.0578h4.791l2.451 2.4404z" fill="#D4DE3B"></path>
<path d="m111.8 75.949v2.5206h-2.532l-2.472-2.462-2.021-4.0724 0.462-0.4597 4.09 2.0115 2.473 2.462z" fill="#D4DE3B"></path>
<path d="m105.49 78.057v4.7728l-2.451 2.4404-2.451-2.4404v-4.7728l2.064-5.8896h0.771l2.067 5.8896z" fill="#D4DE3B"></path>
<path d="m100.84 71.476 0.462 0.4597-2.0206 4.0724-2.4727 2.462h-2.5285v-2.5206l2.4727-2.462 4.0871-2.0115z" fill="#D4DE3B"></path>
<path d="m100.61 69.362v0.7682l-5.9181 2.0578h-4.7937l-2.451-2.4434 2.451-2.4404h4.7937l5.9181 2.0578z" fill="#D4DE3B"></path>
<path d="m103.04 70.809c0.59 0 1.069-0.4765 1.069-1.0643 0-0.5879-0.479-1.0644-1.069-1.0644-0.591 0-1.069 0.4765-1.069 1.0644 0 0.5878 0.478 1.0643 1.069 1.0643z" fill="#D4DE3B"></path>
<path d="m151.76 74.068 0.285-0.3671s9e-3 -0.0278 0.016-0.0432c0.808-1.1261 1.282-2.5021 1.282-3.9923 0-3.7947-3.089-6.8707-6.9-6.8707-3.812 0-6.901 3.076-6.901 6.8707 0 3.4184 2.51 6.2537 5.794 6.7813 1.119 0.1913 2.293 0.111 3.424-0.2869l0.428-0.1666c0.043-0.0186 0.087-0.0371 0.13-0.0556 0.979-0.4442 1.801-1.0921 2.442-1.8665v-0.0031z" fill="#FF9841"></path>
<path d="m134.31 68.746c0.055 0.9564 0.108 1.9159 0.164 2.8723 1.366-0.2252 2.733-0.4504 4.099-0.6787-0.099-0.6541-0.114-1.3112-0.052-1.956-1.404-0.0803-2.808-0.1574-4.211-0.2376z" fill="#FF9841"></path>
<path d="m152.16 61.826 0.517-0.5893 0.323-0.4998c0.164-0.256 0.328-0.5152 0.496-0.7712-0.868-0.4721-1.736-0.9441-2.603-1.4131-0.146 0.3919-0.292 0.7806-0.437 1.1724l-0.146 0.3887-0.201 0.4351-0.301 0.7651-0.403 1.0212c0.611 0.2375 1.19 0.5491 1.729 0.9317l1.029-1.4377-3e-3 -0.0031z" fill="#FF9841"></path>
<path d="m143.16 62.496c-0.613-1.2958-1.227-2.5947-1.84-3.8904-0.846 0.5152-1.689 1.0335-2.535 1.5487 0.899 1.123 1.797 2.243 2.696 3.366 0.502-0.4011 1.063-0.7466 1.676-1.0243h3e-3z" fill="#FF9841"></path>
<path d="m158.97 74.614-1.029-0.4011-0.427-0.1666-3.579-1.3945c-0.239 0.6078-0.552 1.1878-0.936 1.7216l2.429 1.7246 1.051 0.7466 0.269 0.1913 0.072 0.0524 2.358 1.6722c0.747-1.0428 1.357-2.1689 1.822-3.3536l-2.03-0.7898v-0.0031z" fill="#FF9841"></path>
<path d="m158.51 70.983c-0.111-1.1662-0.223-2.3324-0.334-3.4986-1.258 0.3579-2.517 0.7127-3.775 1.0705 0.1 0.6541 0.115 1.3112 0.053 1.956 1.354 0.1574 2.705 0.3147 4.059 0.4721h-3e-3z" fill="#FF9841"></path>
<path d="m149.8 76.999c0.592 1.1909 1.18 2.3818 1.772 3.5726 0.735-0.5769 1.469-1.1538 2.2-1.7308l-2.299-2.8661c-0.505 0.4011-1.063 0.7466-1.676 1.0243h3e-3z" fill="#FF9841"></path>
<path d="m141.09 77.271-0.044 0.0617-0.446 0.6232-0.266 0.3702c-0.313 0.4381-0.629 0.8793-0.945 1.3174 0.815 0.4813 1.629 0.9626 2.444 1.4439 0.255-0.4844 0.505-0.9719 0.76-1.4562-7e-3 -0.0031-0.016-0.0093-0.022-0.0124l0.189-0.4134 0.26-0.6571 0.542-1.3822c-0.61-0.2376-1.189-0.5492-1.729-0.9317l-0.743 1.0366z" fill="#FF9841"></path>
<path d="m144.36 55.807 0.012 0.0771 0.227 1.4902 0.068 0.4535 0.616 4.0416c0.657-0.0987 1.317-0.1142 1.965-0.0525l0.26-2.6872 0.124-1.2865h-0.012l0.04-0.4535h0.019l0.3-3.0945c-1.264-0.1234-2.547-0.0925-3.83 0.1019l0.214 1.4068-3e-3 0.0031z" fill="#FF9841"></path>
<path d="m133.76 64.788 3.173 1.2371 0.424 0.1666 0.685 0.2684 0.025 0.0093 0.966 0.3764c0.239-0.6078 0.552-1.1847 0.936-1.7216l-0.867-0.617-1.063-0.7528-1.525-1.0829-2.014-1.4315-0.706-0.5029c-0.747 1.0428-1.358 2.1689-1.822 3.3536l0.821 0.3209 0.97 0.3764h-3e-3z" fill="#FF9841"></path>
<path d="m139.2 73.053-2.247 1.0181-2.482 1.0212 0.025 0.0957-2.203 0.9996c0.545 1.1878 1.221 2.2738 2.005 3.2518l2.352-1.8697 1.416-1.126 2.163-1.7185c-0.403-0.4998-0.75-1.0582-1.029-1.6691v-0.0031z" fill="#FF9841"></path>
<path d="m148.27 81.494-0.072-0.472-0.517-3.3968c-0.657 0.0987-1.317 0.1142-1.965 0.0524l-0.282 2.9094-0.068 0.7065-0.105 1.086-0.273 2.8167c1.261 0.1235 2.547 0.0926 3.83-0.1018l-0.412-2.7149-0.136-0.8855z" fill="#FF9841"></path>
<path d="m153.77 66.441 2.113-0.9595 1.048-0.4751 0.418-0.1913 1.125-0.5122 2.2-0.9996c-0.545-1.1878-1.221-2.2737-2.005-3.2517l-2.277 1.811-0.512 0.4072-0.365 0.29-0.415 0.3301-0.072 0.0556-2.29 1.8202c0.403 0.5029 0.75 1.0582 1.029 1.6691l3e-3 0.0062z" fill="#FF9841"></path>
<path d="m6.0672 80.895 2.0203-3.4863-8.0875-5.6397 2.3643-1.3575-1.4223-5.2818 14.437 14.374c-3.1048 0.4628-6.2066 0.9286-9.3114 1.3914z" fill="#F6715B"></path>
<path d="m15.543 72.001v5.7323l-13.185-13.124c1.5617 0.3794 3.1234 0.762 4.6883 1.1415 0.26958-0.4659 0.54226-0.9317 0.81184-1.4007l7.6847 7.6513z" fill="#F6715B"></path>
<path d="m15.543 54.382v15.688l-4.1707-4.1526c-0.3874-1.9962-0.7747-3.9892-1.162-5.9822l2.6369 0.7034c0.8986-2.0856 1.7972-4.1712 2.6989-6.2568h-0.0031z" fill="#F6715B"></path>
<path d="m22.103 59.935c-0.3285 2.0084-0.6569 4.0169-0.9854 6.0284l-4.2018 4.1835v-15.873c0.8521 2.1226 1.7012 4.2453 2.5533 6.3648l2.637-0.7034h-0.0031z" fill="#F6715B"></path>
<path d="m30.383 64.387-13.467 13.408v-5.7168l7.6196-7.5865c0.2448 0.4196 0.4865 0.8392 0.7313 1.2588 1.7043-0.4566 3.4116-0.9102 5.1159-1.3637z" fill="#F6715B"></path>
<path d="m24.226 77.409 2.0203 3.4863c-3.0336-0.4659-6.0641-0.9317-9.0977-1.3976l14.148-14.087-1.3448 5.0042 2.3643 1.3575-8.0875 5.6397-0.0031-0.0031z" fill="#F6715B"></path>
<path d="m17.882 85.27h-3.2288c0.3192-1.4839 0.6414-2.9648 0.9606-4.4488h1.3014c0.3223 1.484 0.6446 2.9649 0.9668 4.4488z" fill="#F6715B"></path>
<path d="m54.245 65.797c0.4245-0.4288 0.8521-0.8577 1.2766-1.2865l-0.7963-0.8052 0.2974-2.5453-1.8065-0.2098-0.2572 2.2182-2.1814-0.219-0.1797 1.8017 2.9003 0.2901 0.7468 0.7527v0.0031z" fill="#5AC1CF"></path>
<path d="m62.617 65.803-2.0947 2.0609v-2.8754c-0.6074 0.0216-1.2116 0.0401-1.8189 0.0617v2.6687l-1.8437-1.8573c-0.4246 0.4319-0.8491 0.8608-1.2705 1.2927l1.6764 1.6907h-2.417c0.0031 0.6047 0.0062 1.2063 0.0124 1.811h2.826l-2.1288 2.0917c0.4183 0.435 0.8398 0.87 1.2581 1.3051l1.8871-1.8573v2.6995c0.6073 0.0216 1.2115 0.0401 1.8189 0.0617v-2.8291l2.0358 2.0517c0.4369-0.4165 0.8769-0.833 1.3138-1.2495l-2.2558-2.2769h3.1761c-0.0279-0.6047-0.0558-1.2063-0.0836-1.811h-2.5967l1.8003-1.7709c-0.4338-0.4227-0.8645-0.8454-1.2983-1.268h0.0031z" fill="#5AC1CF"></path>
<path d="m60.522 62.366 3.799-3.6652-1.2643-1.2988-2.5347 2.4465v-5.5934h-1.8189v5.6983l-2.5502-2.5391-1.2859 1.2804 3.8361 3.8194v0.6171c0.6074-0.0062 1.2147-0.0124 1.822-0.0216 0-0.2468-0.0031-0.4967-0.0062-0.7436h0.0031z" fill="#5AC1CF"></path>
<path d="m65.263 65.738c0.2355-0.2283 0.4679-0.4597 0.7034-0.688l2.5564 0.2962 0.2107-1.7987-2.228-0.2561 0.22-2.1719-1.8096-0.179-0.2912 2.8878-0.626 0.617c0.4214 0.4319 0.8429 0.8639 1.2674 1.2927h-0.0031z" fill="#5AC1CF"></path>
<path d="m65.834 74.904-0.6166-0.6233c-0.4463 0.4196-0.8894 0.8423-1.3356 1.2619 0.2448 0.2375 0.4896 0.472 0.7344 0.7096l-0.2975 2.5329 1.8066 0.2098 0.2603-2.2182 2.1814 0.219 0.1797-1.8017-2.9127-0.29z" fill="#5AC1CF"></path>
<path d="m75.176 68.842h-5.5931l2.5254-2.5145-1.2859-1.2803-3.8083 3.7917h-0.3501c0.0093 0.6047 0.0155 1.2124 0.0248 1.8171 0.1394 0 0.2788-3e-3 0.4183-0.0061l3.706 3.8102 1.3045-1.2588-2.482-2.5514h5.5404v-1.811 0.0031z" fill="#5AC1CF"></path>
<path d="m60.523 76.845h-1.8189v0.3887l-3.8268 3.6899 1.2642 1.2989 2.5626-2.4713v5.5163h1.8189v-5.5687l2.5254 2.5144 1.2859-1.2803-3.8082-3.7948v-0.2962l-0.0031 0.0031z" fill="#5AC1CF"></path>
<path d="m52.869 70.653c0.0062-0.6047 0.0123-1.2063 0.0185-1.811h-0.7157l-3.6812-3.7824-1.3046 1.2587 2.4573 2.5237h-5.6179v1.811h5.7263l-2.5533 2.5391 1.286 1.2804 3.8361-3.8195h0.5516-0.0031z" fill="#5AC1CF"></path>
<path d="m54.198 74.08-0.8304 0.8176-2.544-0.2931-0.2107 1.7986 2.2279 0.2561-0.2169 2.172 1.8065 0.1789 0.2913-2.9001 0.7406-0.7281c-0.4214-0.435-0.8429-0.8669-1.2643-1.3019z" fill="#5AC1CF"></path>
<path d="M76.4222 46.7393H0V49.7689H76.4222V46.7393Z" fill="#4CA693"></path>
<path d="m160.95 46.958h-65.459v2.5947h65.459v-2.5947z" fill="#4CA693"></path>
</g>
<defs>
<clipPath id="a">
<rect transform="translate(0 .27002)" width="161" height="85" fill="#fff"></rect>
</clipPath>
</defs>
</svg>